<svg xmlns="http://www.w3.org/2000/svg" xmlns:xlink="http://www.w3.org/1999/xlink" width="345" zoomAndPan="magnify" viewBox="0 0 258.75 104.249996" height="139" preserveAspectRatio="xMidYMid meet" version="1.0"><defs><g/><clipPath id="6071c0a832"><path d="M 0.800781 94 L 69 94 L 69 103 L 0.800781 103 Z M 0.800781 94 " clip-rule="nonzero"/></clipPath><clipPath id="b8d70e4b80"><path d="M 1 34 L 10 34 L 10 103.503906 L 1 103.503906 Z M 1 34 " clip-rule="nonzero"/></clipPath><clipPath id="c165028577"><path d="M 190 6 L 257.703125 6 L 257.703125 15 L 190 15 Z M 190 6 " clip-rule="nonzero"/></clipPath><clipPath id="6aa7471164"><path d="M 250 5 L 257.703125 5 L 257.703125 74 L 250 74 Z M 250 5 " clip-rule="nonzero"/></clipPath></defs><g fill="#00bf63" fill-opacity="1"><g transform="translate(22.578548, 66.420995)"><g><path d="M 28.296875 -43.875 L 28.296875 -35.109375 L 13.1875 -35.109375 L 13.1875 -26.375 L 27.65625 -26.375 L 27.65625 -17.609375 L 13.1875 -17.609375 L 13.1875 -8.78125 L 28.296875 -8.78125 L 28.296875 0 L 3.1875 0 L 3.1875 -43.875 Z M 28.296875 -43.875 "/></g></g></g><g fill="#00bf63" fill-opacity="1"><g transform="translate(48.897585, 66.420995)"><g><path d="M 40.046875 -43.875 L 18.296875 -8.78125 L 38.609375 -8.78125 L 38.609375 0 L 0.84375 0 L 22.546875 -35.109375 L 3.9375 -35.109375 L 3.9375 -43.875 Z M 40.046875 -43.875 "/></g></g></g><g fill="#00bf63" fill-opacity="1"><g transform="translate(85.266176, 66.420995)"><g><path d="M 19.953125 0 L 13.5625 0 L -1.0625 -27.28125 L 9.78125 -27.28125 L 16.4375 -12.546875 L 22.984375 -27.28125 L 29.46875 -27.28125 L 36.015625 -12.546875 L 42.65625 -27.28125 L 53.5 -27.28125 L 38.875 0 L 32.5 0 L 26.21875 -14.09375 Z M 19.953125 0 "/></g></g></g><g fill="#00bf63" fill-opacity="1"><g transform="translate(133.173139, 66.420995)"><g><path d="M 5.046875 -3.375 C 2.492188 -6.15625 1.21875 -9.566406 1.21875 -13.609375 C 1.21875 -17.648438 2.492188 -21.070312 5.046875 -23.875 C 7.597656 -26.675781 10.84375 -28.078125 14.78125 -28.078125 C 18.40625 -28.078125 21.382812 -26.941406 23.71875 -24.671875 L 23.71875 -27.28125 L 33.140625 -27.28125 L 33.140625 0 L 23.828125 0 L 23.828125 -3.078125 L 23.71875 -3.078125 C 21.382812 -0.492188 18.40625 0.796875 14.78125 0.796875 C 10.84375 0.796875 7.597656 -0.59375 5.046875 -3.375 Z M 13.046875 -18.234375 C 11.828125 -17.035156 11.21875 -15.492188 11.21875 -13.609375 C 11.21875 -11.734375 11.800781 -10.203125 12.96875 -9.015625 C 14.144531 -7.828125 15.691406 -7.234375 17.609375 -7.234375 C 19.453125 -7.234375 20.96875 -7.832031 22.15625 -9.03125 C 23.34375 -10.238281 23.9375 -11.765625 23.9375 -13.609375 C 23.9375 -15.492188 23.320312 -17.035156 22.09375 -18.234375 C 20.875 -19.441406 19.378906 -20.046875 17.609375 -20.046875 C 15.796875 -20.046875 14.273438 -19.441406 13.046875 -18.234375 Z M 13.046875 -18.234375 "/></g></g></g><g fill="#00bf63" fill-opacity="1"><g transform="translate(164.968918, 66.420995)"><g><path d="M 15.046875 -28.078125 C 16.609375 -28.078125 18.148438 -27.898438 19.671875 -27.546875 C 21.203125 -27.191406 22.335938 -26.835938 23.078125 -26.484375 L 24.203125 -25.953125 L 21.109375 -19.78125 C 18.984375 -20.914062 16.960938 -21.484375 15.046875 -21.484375 C 13.984375 -21.484375 13.226562 -21.367188 12.78125 -21.140625 C 12.34375 -20.910156 12.125 -20.476562 12.125 -19.84375 C 12.125 -19.695312 12.140625 -19.550781 12.171875 -19.40625 C 12.210938 -19.269531 12.285156 -19.140625 12.390625 -19.015625 C 12.492188 -18.890625 12.585938 -18.78125 12.671875 -18.6875 C 12.765625 -18.601562 12.914062 -18.507812 13.125 -18.40625 C 13.34375 -18.300781 13.515625 -18.21875 13.640625 -18.15625 C 13.765625 -18.101562 13.96875 -18.023438 14.25 -17.921875 C 14.539062 -17.816406 14.753906 -17.738281 14.890625 -17.6875 C 15.035156 -17.632812 15.273438 -17.550781 15.609375 -17.4375 C 15.941406 -17.332031 16.195312 -17.265625 16.375 -17.234375 C 17.476562 -16.910156 18.4375 -16.550781 19.25 -16.15625 C 20.070312 -15.769531 20.929688 -15.238281 21.828125 -14.5625 C 22.734375 -13.894531 23.429688 -13.046875 23.921875 -12.015625 C 24.421875 -10.992188 24.671875 -9.828125 24.671875 -8.515625 C 24.671875 -2.304688 20.363281 0.796875 11.75 0.796875 C 9.800781 0.796875 7.945312 0.492188 6.1875 -0.109375 C 4.4375 -0.710938 3.171875 -1.316406 2.390625 -1.921875 L 1.21875 -2.875 L 5.046875 -9.3125 C 5.335938 -9.0625 5.710938 -8.765625 6.171875 -8.421875 C 6.628906 -8.085938 7.460938 -7.628906 8.671875 -7.046875 C 9.878906 -6.460938 10.925781 -6.171875 11.8125 -6.171875 C 13.757812 -6.171875 14.734375 -6.828125 14.734375 -8.140625 C 14.734375 -8.742188 14.484375 -9.210938 13.984375 -9.546875 C 13.492188 -9.878906 12.65625 -10.257812 11.46875 -10.6875 C 10.28125 -11.113281 9.347656 -11.503906 8.671875 -11.859375 C 6.960938 -12.742188 5.613281 -13.742188 4.625 -14.859375 C 3.632812 -15.984375 3.140625 -17.46875 3.140625 -19.3125 C 3.140625 -22.070312 4.210938 -24.222656 6.359375 -25.765625 C 8.503906 -27.304688 11.398438 -28.078125 15.046875 -28.078125 Z M 15.046875 -28.078125 "/></g></g></g><g fill="#00bf63" fill-opacity="1"><g transform="translate(186.608793, 66.420995)"><g><path d="M 4.78125 -27.28125 L 4.78125 -37.4375 L 14.203125 -37.4375 L 14.203125 -27.28125 L 19.953125 -27.28125 L 19.953125 -20.109375 L 14.203125 -20.109375 L 14.203125 -11.4375 C 14.203125 -8.914062 14.910156 -7.65625 16.328125 -7.65625 C 16.679688 -7.65625 17.050781 -7.722656 17.4375 -7.859375 C 17.832031 -8.003906 18.132812 -8.148438 18.34375 -8.296875 L 18.671875 -8.515625 L 21.015625 -0.90625 C 18.992188 0.226562 16.6875 0.796875 14.09375 0.796875 C 12.320312 0.796875 10.796875 0.488281 9.515625 -0.125 C 8.242188 -0.75 7.28125 -1.582031 6.625 -2.625 C 5.96875 -3.675781 5.492188 -4.773438 5.203125 -5.921875 C 4.921875 -7.078125 4.78125 -8.3125 4.78125 -9.625 L 4.78125 -20.109375 L 0.84375 -20.109375 L 0.84375 -27.28125 Z M 4.78125 -27.28125 "/></g></g></g><g fill="#00bf63" fill-opacity="1"><g transform="translate(203.090968, 66.420995)"><g><path d="M 30.796875 -12.34375 L 11.015625 -12.34375 C 11.015625 -10.425781 11.632812 -9.003906 12.875 -8.078125 C 14.113281 -7.160156 15.457031 -6.703125 16.90625 -6.703125 C 18.4375 -6.703125 19.644531 -6.90625 20.53125 -7.3125 C 21.414062 -7.71875 22.425781 -8.523438 23.5625 -9.734375 L 30.375 -6.328125 C 27.53125 -1.578125 22.8125 0.796875 16.21875 0.796875 C 12.101562 0.796875 8.570312 -0.609375 5.625 -3.421875 C 2.6875 -6.242188 1.21875 -9.640625 1.21875 -13.609375 C 1.21875 -17.585938 2.6875 -20.992188 5.625 -23.828125 C 8.570312 -26.660156 12.101562 -28.078125 16.21875 -28.078125 C 20.550781 -28.078125 24.070312 -26.828125 26.78125 -24.328125 C 29.488281 -21.828125 30.84375 -18.253906 30.84375 -13.609375 C 30.84375 -12.972656 30.828125 -12.550781 30.796875 -12.34375 Z M 11.28125 -17.546875 L 21.640625 -17.546875 C 21.429688 -18.960938 20.875 -20.050781 19.96875 -20.8125 C 19.0625 -21.582031 17.898438 -21.96875 16.484375 -21.96875 C 14.921875 -21.96875 13.675781 -21.554688 12.75 -20.734375 C 11.832031 -19.921875 11.34375 -18.859375 11.28125 -17.546875 Z M 11.28125 -17.546875 "/></g></g></g><g clip-path="url(#6071c0a832)"><path stroke-linecap="butt" transform="matrix(0.744643, 0, 0, 0.744643, 1.720473, 94.642268)" fill="none" stroke-linejoin="miter" d="M -0.0023132 5.002291 L 84.434144 5.002291 " stroke="#292929" stroke-width="10" stroke-opacity="1" stroke-miterlimit="4"/></g><g clip-path="url(#b8d70e4b80)"><path stroke-linecap="butt" transform="matrix(0, 0.744643, -0.744643, 0, 9.163083, 38.45282)" fill="none" stroke-linejoin="miter" d="M 0.000409895 4.997935 L 82.464445 4.997935 " stroke="#292929" stroke-width="10" stroke-opacity="1" stroke-miterlimit="4"/></g><g clip-path="url(#c165028577)"><path stroke-linecap="butt" transform="matrix(-0.744643, 0, 0, -0.744643, 257.579108, 14.067952)" fill="none" stroke-linejoin="miter" d="M 0.0013206 5.001327 L 84.432532 5.001327 " stroke="#292929" stroke-width="10" stroke-opacity="1" stroke-miterlimit="4"/></g><g clip-path="url(#6aa7471164)"><path stroke-linecap="butt" transform="matrix(0, -0.744643, 0.744643, 0, 250.136491, 70.257396)" fill="none" stroke-linejoin="miter" d="M -0.000559084 4.999557 L 82.463476 4.999557 " stroke="#292929" stroke-width="10" stroke-opacity="1" stroke-miterlimit="4"/></g></svg>